<?xml version="1.0" encoding="UTF-8"?>
<svg width="161px" height="32px" viewBox="0 0 161 32" version="1.1" xmlns="http://www.w3.org/2000/svg" xmlns:xlink="http://www.w3.org/1999/xlink">
    <!-- Generator: Sketch 47.1 (45422) - http://www.bohemiancoding.com/sketch -->
    <title>Branding/Logo</title>
    <desc>Created with Sketch.</desc>
    <defs></defs>
    <g id="Mailing" stroke="none" stroke-width="1" fill="none" fill-rule="evenodd">
        <g id="Mail-Light" transform="translate(-229.000000, -28.000000)">
            <g id="mail">
                <g id="Logotipo" transform="translate(229.000000, 28.000000)">
                    <g id="Branding/Logo-Dark">
                        <g id="Logo">
                            <path d="M19.1755487,21.3581749 L13.8673754,24.288758 C13.7468423,24.3549821 13.600721,24.3549821 13.4795145,24.289427 L6.91416,20.6999476 C6.65827952,20.5601412 6.49936427,20.2925691 6.49936427,20.0029224 L6.49936427,13.1544152 C6.49936427,12.8607548 6.66231974,12.591176 6.92291381,12.4527074 L10.2567672,10.6827182 C10.9234032,10.3281852 11.7301,10.808477 11.7301,11.5596856 L11.7301,15.9050561 L19.1721819,19.9647934 C19.724345,20.2664809 19.7263651,21.0538117 19.1755487,21.3581749 M27.1159241,16.3920373 L17.9277947,11.3416144 C17.9190409,11.3369319 17.9136539,11.3282358 17.9136539,11.3182018 L17.9136539,0.797267946 C17.9136539,0.204595805 17.2847266,-0.180707979 16.7520912,0.0861951632 L0.880767558,8.03308571 C0.340725064,8.30400244 0,8.85386305 0,9.45456235 L0,23.8439195 C0,24.1302216 0.15420166,24.3937801 0.404695185,24.5355933 L13.2344079,31.791479 C13.7165406,32.0644025 14.3070859,32.0697539 14.7939321,31.8055265 L27.1071703,25.132279 C27.6222982,24.8533351 27.9421488,24.317522 27.9421488,23.7348839 L27.9421488,17.7847499 C27.9421488,17.2054564 27.625665,16.672319 27.1159241,16.3920373" id="Fill-1" fill="#4F90FF"></path>
                            <path d="M138.86556,13.7124667 C138.843606,14.1344667 138.832296,14.5678 138.832296,15.0124667 L138.832296,25.8791333 L141.559982,25.8791333 L141.559982,15.9791333 C141.559982,15.6238 141.571292,15.2571333 141.593246,14.8791333 C141.593246,14.5238 141.604556,14.1791333 141.626511,13.8458 C142.047639,13.6678 142.557916,13.5238 143.156676,13.4124667 C143.733482,13.3011333 144.265713,13.2458 144.75337,13.2458 C145.72935,13.2458 146.471812,13.3791333 146.982089,13.6458 C147.492366,13.8904667 147.846965,14.2904667 148.046552,14.8458 C148.246139,15.3791333 148.345932,16.0571333 148.345932,16.8791333 L148.345932,25.8791333 L151.040354,25.8791333 L151.040354,16.5458 C151.040354,16.1011333 151.018399,15.6678 150.973825,15.2458 C150.92925,14.8238 150.852077,14.4238 150.740974,14.0458 C151.317779,13.7791333 151.927184,13.5791333 152.570519,13.4458 C153.191234,13.3124667 153.746085,13.2458 154.233742,13.2458 C155.209721,13.2458 155.952184,13.3791333 156.462461,13.6458 C156.994693,13.8904667 157.360602,14.2904667 157.560188,14.8458 C157.759775,15.3791333 157.848259,16.0571333 157.826304,16.8791333 L157.826304,25.8791333 L160.55399,25.8791333 L160.55399,16.5458 C160.575945,15.5678 160.454197,14.6791333 160.188081,13.8791333 C159.921965,13.0791333 159.389734,12.4344667 158.591387,11.9458 C157.79304,11.4791333 156.595519,11.2344667 154.998825,11.2124667 C153.978936,11.2344667 153.002957,11.3344667 152.071552,11.5124667 C151.140147,11.6904667 150.286581,11.9458 149.510188,12.2791333 C149.111015,11.9458 148.578783,11.6904667 147.913494,11.5124667 C147.248205,11.3124667 146.438548,11.2124667 145.485188,11.2124667 C144.309622,11.2344667 143.145366,11.3571333 141.99242,11.5791333 C140.839474,11.8011333 139.81892,12.0904667 138.932089,12.4458 C138.910135,12.8678 138.887515,13.2904667 138.86556,13.7124667 M132.67837,18.6458 C132.67837,20.0011333 132.556622,21.0791333 132.312461,21.8791333 C132.046345,22.6571333 131.602598,23.2124667 130.981883,23.5458 C130.338548,23.8791333 129.484982,24.0344667 128.420519,24.0124667 C127.334102,24.0344667 126.47987,23.8904667 125.859155,23.5791333 C125.23844,23.2678 124.794693,22.7238 124.528577,21.9458 C124.262461,21.1678 124.140713,20.0678 124.162668,18.6458 C124.140713,17.2238 124.262461,16.1238 124.528577,15.3458 C124.794693,14.5458 125.23844,13.9904667 125.859155,13.6791333 C126.47987,13.3904667 127.334102,13.2458 128.420519,13.2458 C129.506936,13.2458 130.361168,13.4124667 130.981883,13.7458 C131.602598,14.0571333 132.046345,14.6124667 132.312461,15.4124667 C132.556622,16.1904667 132.67837,17.2678 132.67837,18.6458 M134.740767,14.3458 C134.275064,13.2571333 133.531936,12.4571333 132.512048,11.9458 C131.49216,11.4571333 130.128317,11.2124667 128.420519,11.2124667 C126.712721,11.2124667 125.338234,11.4571333 124.295726,11.9458 C123.275837,12.4344667 122.544019,13.2238 122.100271,14.3124667 C121.634569,15.4011333 121.401717,16.8458 121.401717,18.6458 C121.401717,20.4238 121.634569,21.8678 122.100271,22.9791333 C122.544019,24.0678 123.275837,24.8571333 124.295726,25.3458 C125.338234,25.8344667 126.712721,26.0791333 128.420519,26.0791333 C130.128317,26.0791333 131.49216,25.8238 132.512048,25.3124667 C133.531936,24.8011333 134.275064,24.0011333 134.740767,22.9124667 C135.184515,21.8238 135.406056,20.4011333 135.406056,18.6458 C135.406056,16.8904667 135.184515,15.4571333 134.740767,14.3458 M119.106469,13.5458 L119.306056,11.6791333 C118.795779,11.5458 118.241593,11.4344667 117.642833,11.3458 C117.022118,11.2571333 116.323564,11.2124667 115.547172,11.2124667 C113.662407,11.2124667 112.220726,11.4904667 111.222792,12.0458 C110.202903,12.6011333 109.50435,13.4238 109.127131,14.5124667 C108.772531,15.5791333 108.606209,16.9011333 108.628164,18.4791333 C108.606209,19.8571333 108.749912,21.1124667 109.060602,22.2458 C109.371292,23.3791333 109.980697,24.2904667 110.890147,24.9791333 C111.776978,25.6904667 113.096912,26.0571333 114.848618,26.0791333 C115.735449,26.0791333 116.545106,26.0344667 117.276924,25.9458 C118.008742,25.8571333 118.695986,25.7458 119.339321,25.6124667 L119.106469,23.6458 C118.685341,23.7344667 118.241593,23.8124667 117.775891,23.8791333 C117.288234,23.9458 116.833176,23.9791333 116.412048,23.9791333 C115.236482,23.9791333 114.305077,23.8678 113.617833,23.6458 C112.930589,23.4011333 112.431622,23.0571333 112.120932,22.6124667 C111.788288,22.1458 111.577391,21.5678 111.488907,20.8791333 C111.400424,20.1904667 111.36716,19.3904667 111.389114,18.4791333 C111.36716,17.1904667 111.455643,16.1678 111.65523,15.4124667 C111.876771,14.6571333 112.353783,14.1011333 113.085602,13.7458 C113.795465,13.4124667 114.903837,13.2571333 116.412048,13.2791333 C116.87775,13.2791333 117.343453,13.3011333 117.809155,13.3458 C118.274858,13.4124667 118.707296,13.4791333 119.106469,13.5458 M105.634362,23.1458 C105.390201,22.9011333 104.957763,22.7791333 104.337048,22.7791333 C103.716333,22.7791333 103.283895,22.9011333 103.039734,23.1458 C102.795573,23.3904667 102.673825,23.8238 102.673825,24.4458 C102.673825,25.0458 102.784928,25.4678 103.006469,25.7124667 C103.250631,25.9571333 103.693713,26.0791333 104.337048,26.0791333 C104.957763,26.0791333 105.390201,25.9571333 105.634362,25.7124667 C105.878523,25.4678 105.988961,25.0344667 105.967007,24.4124667 C105.988961,23.8124667 105.878523,23.3904667 105.634362,23.1458" id="Fill-4" fill="#210E4A"></path>
                            <path d="M95.5219653,18.8458 L95.5219653,21.0124667 C95.5219653,21.3238 95.5106554,21.6458 95.4887008,21.9791333 C95.4667463,22.3124667 95.4441264,22.6344667 95.4221719,22.9458 C94.978424,23.1011333 94.5127215,23.2011333 94.0250645,23.2458 C93.5374074,23.3124667 93.071705,23.3344667 92.627957,23.3124667 C91.763081,23.3344667 91.0977917,23.2124667 90.6320893,22.9458 C90.1663868,22.6571333 89.9335355,22.1344667 89.9335355,21.3791333 C89.9335355,20.6678 90.0779033,20.1458 90.3659736,19.8124667 C90.6766636,19.5011333 91.1756306,19.2904667 91.8628744,19.1791333 C92.4170603,19.0678 93.0158207,18.9904667 93.6591554,18.9458 C94.3024901,18.9011333 94.923205,18.8678 95.5219653,18.8458 M99.380643,15.8791333 C99.3586884,14.6344667 99.0593083,13.6678 98.4825025,12.9791333 C97.9056967,12.3124667 97.1299694,11.8458 96.1539901,11.5791333 C95.1780107,11.3344667 94.0915934,11.2124667 92.8940727,11.2124667 C91.7185066,11.2344667 90.6101347,11.3011333 89.5676264,11.4124667 C88.5031636,11.5238 87.5498041,11.6458 86.7068826,11.7791333 L87.0395273,14.4458 C87.8378744,14.3571333 88.724705,14.2791333 89.7006843,14.2124667 C90.6766636,14.1238 91.6413331,14.0791333 92.5946926,14.0791333 C93.614581,14.0791333 94.3577091,14.2678 94.8234116,14.6458 C95.289114,15.0458 95.5219653,15.6571333 95.5219653,16.4791333 C94.6570893,16.5011333 93.8035231,16.5458 92.9606017,16.6124667 C92.1176802,16.6571333 91.2860686,16.7344667 90.4657669,16.8458 C88.8910273,17.0904667 87.7600355,17.6011333 87.0727917,18.3791333 C86.3855479,19.1344667 86.0529033,20.1571333 86.0748579,21.4458 C86.0529033,22.9791333 86.5186058,24.1344667 87.4719653,24.9124667 C88.4253248,25.6904667 89.9887545,26.0791333 92.1622545,26.0791333 C93.6039364,26.0791333 94.911895,25.9678 96.0874612,25.7458 C97.2849818,25.5458 98.3381347,25.2011333 99.2475851,24.7124667 C99.2921595,24.2678 99.325424,23.8238 99.3473785,23.3791333 C99.3693331,22.9344667 99.380643,22.4678 99.380643,21.9791333 L99.380643,15.8791333 M78.3907669,14.1458 C78.7899405,14.2124667 79.1558496,14.2904667 79.4884942,14.3791333 L79.4884942,20.9124667 L79.4884942,21.9124667 C79.4665397,22.2458 79.4332752,22.5571333 79.3887008,22.8458 C79.0780107,22.9791333 78.701457,23.0791333 78.2577091,23.1458 C77.8139612,23.2124667 77.3708785,23.2458 76.9271306,23.2458 C75.8180934,23.2238 75.0197463,23.0011333 74.5320893,22.5791333 C74.0218124,22.1344667 73.7004777,21.5678 73.5674198,20.8791333 C73.434362,20.1904667 73.379143,19.4458 73.4010975,18.6458 C73.379143,17.7571333 73.434362,16.9678 73.5674198,16.2791333 C73.7004777,15.5904667 74.0444322,15.0458 74.5986182,14.6458 C75.1528041,14.2678 76.0509446,14.0791333 77.2930397,14.0791333 C77.6256843,14.0791333 77.9915934,14.1011333 78.3907669,14.1458 M83.4469653,5.81246667 L79.4884942,5.81246667 L79.4884942,11.5124667 C79.0008372,11.4238 78.5018702,11.3571333 77.9915934,11.3124667 C77.459362,11.2458 76.9490851,11.2124667 76.4614281,11.2124667 C74.8427793,11.2124667 73.5122008,11.4344667 72.4696926,11.8791333 C71.4498041,12.3678 70.6847215,13.1458 70.1744446,14.2124667 C69.6867876,15.3011333 69.4426264,16.7791333 69.4426264,18.6458 C69.4426264,20.5124667 69.6974322,21.9904667 70.2077091,23.0791333 C70.7399405,24.1678 71.5495975,24.9458 72.6360149,25.4124667 C73.7450521,25.8571333 75.175424,26.0791333 76.9271306,26.0791333 C78.0135479,26.0791333 79.1225851,25.9678 80.2535769,25.7458 C81.3845686,25.5458 82.404457,25.2011333 83.3139074,24.7124667 C83.3584818,24.2678 83.3917463,23.8238 83.4137008,23.3791333 C83.4356554,22.9344667 83.4469653,22.4678 83.4469653,21.9791333 L83.4469653,5.81246667 M45.3591554,14.6458 C45.9133413,15.0458 46.2572959,15.5904667 46.3903537,16.2791333 C46.5234116,16.9678 46.5786306,17.7571333 46.556676,18.6458 C46.5786306,19.4458 46.5234116,20.1904667 46.3903537,20.8791333 C46.2572959,21.5678 45.9359612,22.1344667 45.4256843,22.5791333 C44.9380273,23.0011333 44.1396802,23.2238 43.030643,23.2458 C42.586895,23.2458 42.1325025,23.2124667 41.6668,23.1458 C41.2230521,23.0791333 40.857143,22.9791333 40.5690727,22.8458 C40.5244983,22.5571333 40.4912339,22.2458 40.4692793,21.9124667 C40.4692793,21.5791333 40.4692793,21.2458 40.4692793,20.9124667 L40.4692793,14.3791333 C40.7799694,14.2904667 41.1458785,14.2124667 41.5670066,14.1458 C41.9661802,14.1011333 42.3320893,14.0791333 42.6647339,14.0791333 C43.9068289,14.0791333 44.8049694,14.2678 45.3591554,14.6458 M36.5440727,23.3791333 C36.5660273,23.8238 36.5992917,24.2678 36.6438661,24.7124667 C37.5533165,25.2011333 38.573205,25.5458 39.7041967,25.7458 C40.8351884,25.9678 41.9442256,26.0791333 43.030643,26.0791333 C44.7823496,26.0791333 46.2127215,25.8571333 47.3217587,25.4124667 C48.408176,24.9458 49.2178331,24.1678 49.7500645,23.0791333 C50.2603413,21.9904667 50.5151471,20.5124667 50.5151471,18.6458 C50.5151471,16.7791333 50.270986,15.3011333 49.7833289,14.2124667 C49.2730521,13.1458 48.5079694,12.3678 47.488081,11.8791333 C46.4455727,11.4344667 45.1149942,11.2124667 43.4963455,11.2124667 C42.9860686,11.2124667 42.476457,11.2458 41.9661802,11.3124667 C41.4339488,11.3571333 40.9349818,11.4238 40.4692793,11.5124667 L40.4692793,5.81246667 L36.5108083,5.81246667 L36.5108083,21.9791333 C36.5108083,22.4678 36.5221182,22.9344667 36.5440727,23.3791333 M66.6484116,23.3791333 C66.6703661,22.9344667 66.681676,22.4678 66.681676,21.9791333 L66.681676,11.4124667 L62.7564694,11.4124667 L62.7564694,20.8458 C62.7564694,21.1791333 62.7451595,21.5124667 62.723205,21.8458 C62.7012504,22.1791333 62.6786306,22.5011333 62.656676,22.8124667 C62.345986,22.9238 61.9694322,23.0124667 61.5256843,23.0791333 C61.1045562,23.1458 60.6721182,23.1791333 60.2283702,23.1791333 C59.3415397,23.1791333 58.6762504,23.0791333 58.2325025,22.8791333 C57.7668,22.6791333 57.4674198,22.3678 57.334362,21.9458 C57.1793496,21.5238 57.1128207,20.9791333 57.1347752,20.3124667 L57.1347752,11.4124667 L53.1763041,11.4124667 L53.1763041,20.6124667 C53.1763041,21.3904667 53.2428331,22.1124667 53.3758909,22.7791333 C53.5089488,23.4458 53.7863744,24.0238 54.2075025,24.5124667 C54.6286306,25.0011333 55.2606554,25.3791333 56.1035769,25.6458 C56.9464983,25.9124667 58.0661802,26.0571333 59.4632876,26.0791333 C60.860395,26.0791333 62.1577091,25.9678 63.3552298,25.7458 C64.5527504,25.5238 65.6172132,25.1791333 66.5486182,24.7124667 C66.5931926,24.2678 66.626457,23.8238 66.6484116,23.3791333" id="Fill-7" fill="#210E4A"></path>
                        </g>
                    </g>
                </g>
            </g>
        </g>
    </g>
</svg>